HIERARCHY
ROOT joint_Root
{
	OFFSET 0.0 0.0 0.0
	CHANNELS 6 Xposition Yposition Zposition Zrotation Xrotation Yrotation 
	JOINT Hips
	{
		OFFSET -17.1583 93.1646 452.98
		CHANNELS 6 Xposition Yposition Zposition Zrotation Xrotation Yrotation 
		JOINT Spine
		{
			OFFSET 15.7357 0.0 0.0
			CHANNELS 6 Xposition Yposition Zposition Zrotation Xrotation Yrotation 
			JOINT Chest
			{
				OFFSET 8.98455 -0.406207 0.0
				CHANNELS 6 Xposition Yposition Zposition Zrotation Xrotation Yrotation 
				JOINT Neck
				{
					OFFSET 16.3773 0.0 0.0
					CHANNELS 6 Xposition Yposition Zposition Zrotation Xrotation Yrotation 
					JOINT Head
					{
						OFFSET 6.45672 0.0 0.0
						CHANNELS 6 Xposition Yposition Zposition Zrotation Xrotation Yrotation 
						End Site
						{
							OFFSET 0.0 0.0 0.0
						}
					}
				}
				JOINT Shoulder_L
				{
					OFFSET 12.9942 -0.242716 4.98039
					CHANNELS 6 Xposition Yposition Zposition Zrotation Xrotation Yrotation 
					JOINT UpperArm_L
					{
						OFFSET 5.34809 0.0 0.0
						CHANNELS 6 Xposition Yposition Zposition Zrotation Xrotation Yrotation 
						JOINT LowerArm_L
						{
							OFFSET 24.3286 1.87007e-05 0.0
							CHANNELS 6 Xposition Yposition Zposition Zrotation Xrotation Yrotation 
							JOINT Hand_L
							{
								OFFSET 22.2916 0.0 0.0
								CHANNELS 6 Xposition Yposition Zposition Zrotation Xrotation Yrotation 
								End Site
								{
									OFFSET 0.0 0.0 0.0
								}
							}
						}
					}
				}
				JOINT Shoulder_R
				{
					OFFSET 12.9945 -0.242716 -4.98039
					CHANNELS 6 Xposition Yposition Zposition Zrotation Xrotation Yrotation 
					JOINT UpperArm_R
					{
						OFFSET -5.34813 0.0 0.0
						CHANNELS 6 Xposition Yposition Zposition Zrotation Xrotation Yrotation 
						JOINT LowerArm_R
						{
							OFFSET -24.3289 0.000322201 0.0
							CHANNELS 6 Xposition Yposition Zposition Zrotation Xrotation Yrotation 
							JOINT Hand_R
							{
								OFFSET -22.2915 -0.000108084 0.0
								CHANNELS 6 Xposition Yposition Zposition Zrotation Xrotation Yrotation 
								End Site
								{
									OFFSET 0.0 0.0 0.0
								}
							}
						}
					}
				}
			}
		}
		JOINT UpperLeg_L
		{
			OFFSET -2.19248 -6.46944 0.0
			CHANNELS 6 Xposition Yposition Zposition Zrotation Xrotation Yrotation 
			JOINT LowerLeg_L
			{
				OFFSET 39.0811 0.0 -1.23785e-05
				CHANNELS 6 Xposition Yposition Zposition Zrotation Xrotation Yrotation 
				JOINT Foot_L
				{
					OFFSET 40.9854 0.0 -1.26872e-05
					CHANNELS 6 Xposition Yposition Zposition Zrotation Xrotation Yrotation 
					JOINT Toes_L
					{
						OFFSET 11.7543 0.0 0.0
						CHANNELS 6 Xposition Yposition Zposition Zrotation Xrotation Yrotation 
						End Site
						{
							OFFSET 0.0 0.0 0.0
						}
					}
				}
			}
		}
		JOINT UpperLeg_R
		{
			OFFSET -2.19251 6.46944 0.0
			CHANNELS 6 Xposition Yposition Zposition Zrotation Xrotation Yrotation 
			JOINT LowerLeg_R
			{
				OFFSET -39.0811 -0.00228153 -0.0401928
				CHANNELS 6 Xposition Yposition Zposition Zrotation Xrotation Yrotation 
				JOINT Foot_R
				{
					OFFSET -40.9854 0.0 0.0
					CHANNELS 6 Xposition Yposition Zposition Zrotation Xrotation Yrotation 
					JOINT Toes_R
					{
						OFFSET -11.7543 0.0 0.0
						CHANNELS 6 Xposition Yposition Zposition Zrotation Xrotation Yrotation 
						End Site
						{
							OFFSET 0.0 0.0 0.0
						}
					}
				}
			}
		}
	}
}
MOTION
Frames:	5
Frame Time:	0.0333333
0.000000 0.000000 0.000000 0.000000 0.000000 -0.000000 -3.594490 92.704400 -2.706750 87.974800 3.825820 5.633140 15.735700 0.000005 -0.000001 88.373000 85.567200 -87.348700 8.984550 -0.406207 -0.000000 1.099590 -0.311168 2.050000 16.377300 -0.000001 -0.000001 8.214180 1.903180 -2.942330 6.456720 -0.000001 -0.000000 -7.516100 0.489286 -0.696860 12.994200 -0.242716 4.980390 -93.645400 10.149500 -70.122700 5.348090 -0.000007 -0.000001 -69.682700 30.211900 -2.756580 24.328600 0.000019 0.000005 12.187400 28.072300 -24.652800 22.291600 -0.000001 0.000005 -4.906380 5.101050 5.089510 12.994500 -0.242716 -4.980390 87.371700 7.475360 -70.564800 -5.348130 -0.000001 -0.000004 -68.676700 33.211400 -3.530260 -24.328900 0.000322 -0.000009 2.232010 5.677710 -21.511100 -22.291500 -0.000108 -0.000004 -6.244500 5.254170 1.323010 -2.192480 -6.469440 -0.000000 -176.669000 1.259030 -1.034210 39.081100 -0.000007 -0.000012 0.205609 -0.509126 21.991500 40.985400 -0.000006 -0.000013 1.062100 7.072460 -70.797700 11.754300 -0.000000 0.000003 -0.000355 0.173395 -9.543690 -2.192510 6.469440 -0.000001 -174.955000 13.251500 -175.642000 -39.081100 -0.002282 -0.040193 0.084158 -0.322346 14.076300 -40.985400 0.000008 0.000006 4.534490 3.874320 -69.443100 -11.754300 -0.000006 -0.000006 -0.010269 0.273304 -5.469230
0.000000 0.000000 0.000000 0.000000 0.000000 -0.000000 -3.594390 92.726000 -2.773210 87.919100 3.994700 5.469440 15.735700 0.000005 -0.000001 88.252400 85.594300 -87.204200 8.984550 -0.406207 -0.000000 1.045140 -0.330057 2.097680 16.377300 -0.000001 -0.000001 8.072720 1.840940 -2.789530 6.456720 -0.000001 -0.000000 -7.617220 0.346068 -0.456150 12.994200 -0.242716 4.980390 -93.624500 10.125700 -70.185900 5.348090 -0.000007 -0.000001 -69.739200 30.194600 -2.683880 24.328600 0.000019 0.000005 12.168800 27.941800 -24.711900 22.291600 -0.000001 0.000005 -4.946960 5.101670 5.075500 12.994500 -0.242716 -4.980390 87.394100 7.386150 -70.504200 -5.348130 -0.000001 -0.000004 -68.016700 32.835300 -3.603790 -24.328900 0.000322 -0.000009 2.818000 6.849490 -22.433500 -22.291500 -0.000108 -0.000004 -8.011810 5.259390 1.185030 -2.192480 -6.469440 -0.000000 -176.637000 1.427520 -1.254610 39.081100 -0.000007 -0.000012 0.206537 -0.512302 21.957400 40.985400 -0.000006 -0.000013 1.049930 7.035100 -70.787500 11.754300 -0.000000 0.000003 -0.000434 0.174635 -9.493290 -2.192510 6.469440 -0.000001 -174.875000 13.288300 -175.818000 -39.081100 -0.002282 -0.040193 0.079211 -0.305140 13.964500 -40.985400 0.000008 0.000006 4.297830 3.803810 -69.312000 -11.754300 -0.000006 -0.000006 -0.010558 0.275431 -5.382190
0.000000 0.000000 0.000000 0.000000 0.000000 -0.000000 -3.576830 92.734500 -2.837710 87.864900 4.206170 5.331560 15.735700 0.000005 -0.000001 87.986700 85.611200 -86.906100 8.984550 -0.406207 -0.000000 1.010650 -0.371932 2.162730 16.377300 -0.000001 -0.000001 7.849990 1.761340 -2.615580 6.456720 -0.000001 -0.000000 -7.672210 0.230990 -0.172218 12.994200 -0.242716 4.980390 -93.583700 10.061500 -70.278000 5.348090 -0.000007 -0.000001 -69.901600 30.139500 -2.634590 24.328600 0.000019 0.000005 12.175800 28.001200 -24.682300 22.291600 -0.000001 0.000005 -4.913580 5.103450 5.034460 12.994500 -0.242716 -4.980390 87.445900 7.244680 -70.520000 -5.348130 -0.000001 -0.000004 -67.060000 32.524100 -3.555800 -24.328900 0.000322 -0.000009 3.437040 7.749230 -24.013900 -22.291500 -0.000108 -0.000004 -9.953390 5.259680 1.176720 -2.192480 -6.469440 -0.000000 -176.617000 1.691790 -1.500800 39.081100 -0.000007 -0.000012 0.208357 -0.515450 22.010000 40.985400 -0.000006 -0.000013 1.042570 6.982520 -70.777900 11.754300 -0.000000 0.000003 -0.000458 0.175004 -9.478330 -2.192510 6.469440 -0.000001 -174.786000 13.330000 -176.003000 -39.081100 -0.002282 -0.040193 0.076819 -0.296561 13.917500 -40.985400 0.000008 0.000006 4.167300 3.641680 -69.198900 -11.754300 -0.000006 -0.000006 -0.010348 0.273884 -5.445490
0.000000 0.000000 0.000000 0.000000 0.000000 -0.000000 -3.567340 92.745100 -2.912090 87.795400 4.472920 5.214010 15.735700 0.000005 -0.000001 87.585400 85.606800 -86.463400 8.984550 -0.406207 -0.000000 1.017810 -0.436071 2.246090 16.377300 -0.000001 -0.000001 7.577990 1.643970 -2.396760 6.456720 -0.000001 -0.000000 -7.868930 0.088130 0.157391 12.994200 -0.242716 4.980390 -93.535600 9.995620 -70.406100 5.348090 -0.000007 -0.000001 -70.019000 30.311700 -2.579880 24.328600 0.000019 0.000005 12.149900 27.843000 -24.747700 22.291600 -0.000001 0.000005 -5.028840 5.100590 5.100110 12.994500 -0.242716 -4.980390 87.511300 7.066500 -70.541700 -5.348130 -0.000001 -0.000004 -65.741900 32.137200 -3.272070 -24.328900 0.000322 -0.000009 4.422220 8.833700 -26.730700 -22.291500 -0.000108 -0.000004 -11.696800 5.256730 1.254660 -2.192480 -6.469440 -0.000000 -176.581000 1.996400 -1.737600 39.081100 -0.000007 -0.000012 0.209112 -0.516076 22.057900 40.985400 -0.000006 -0.000013 1.029900 6.920380 -70.737900 11.754300 -0.000000 0.000003 -0.000336 0.173104 -9.555500 -2.192510 6.469440 -0.000001 -174.693000 13.380300 -176.178000 -39.081100 -0.002282 -0.040193 0.073825 -0.285331 13.877500 -40.985400 0.000008 0.000006 3.948740 3.518480 -69.072100 -11.754300 -0.000006 -0.000006 -0.010291 0.273465 -5.462630
0.000000 0.000000 0.000000 0.000000 0.000000 -0.000000 -3.561920 92.760100 -3.007920 87.693200 4.807740 5.004990 15.735700 0.000005 -0.000001 87.143000 85.630800 -85.963400 8.984550 -0.406207 -0.000000 0.967893 -0.505334 2.361470 16.377300 -0.000001 -0.000001 7.177910 1.520880 -2.148960 6.456720 -0.000001 -0.000000 -8.121080 -0.118957 0.533561 12.994200 -0.242716 4.980390 -93.508600 9.966290 -70.492100 5.348090 -0.000007 -0.000001 -70.113000 30.323200 -2.574340 24.328600 0.000019 0.000005 12.185300 27.909100 -24.765600 22.291600 -0.000001 0.000005 -5.107770 5.101290 5.084030 12.994500 -0.242716 -4.980390 87.582800 6.832590 -70.464200 -5.348130 -0.000001 -0.000004 -64.384200 30.672000 -2.446520 -24.328900 0.000322 -0.000009 6.145550 10.319200 -31.005900 -22.291500 -0.000108 -0.000004 -12.813200 5.239220 1.717550 -2.192480 -6.469440 -0.000000 -176.515000 2.383680 -2.110730 39.081100 -0.000007 -0.000012 0.212770 -0.522977 22.139000 40.985400 -0.000006 -0.000013 1.021380 6.894940 -70.760900 11.754300 -0.000000 0.000003 -0.000432 0.174611 -9.494280 -2.192510 6.469440 -0.000001 -174.558000 13.515700 -176.434000 -39.081100 -0.002282 -0.040193 0.069186 -0.268623 13.774600 -40.985400 0.000008 0.000006 3.714860 3.375600 -68.921900 -11.754300 -0.000006 -0.000006 -0.010222 0.272959 -5.483330
